<svg width="60" height="56" viewBox="0 0 60 56" fill="none" xmlns="http://www.w3.org/2000/svg">
<path d="M37.2 0.099997C34.9 0.077397 32.9 1.93 32.9 4.35V9.52L22.1 6.83C21.764 6.7462 21.429 6.704 21.1 6.701C18.8 6.6784 16.8 8.531 16.8 10.951V16.101L6.09999 13.431C3.40999 12.761 0.799988 14.791 0.799988 17.551V46.251C0.799988 48.691 2.45999 50.811 4.82999 51.401L21.93 55.661C24.62 56.331 27.23 54.301 27.23 51.541V22.841C27.23 21.091 26.373 19.511 25.02 18.541C24.9984 18.4703 25.0033 18.392 25.0473 18.328C25.1223 18.219 25.2573 18.167 25.3833 18.205C27.6333 18.885 29.7733 21.185 29.9933 24.085L30.7353 45.985C30.7544 46.719 31.2443 47.345 31.9353 47.575L37.9353 49.065C40.6253 49.735 43.2353 47.705 43.2353 44.945C43.3061 35.475 43.2857 25.845 43.2881 16.345C43.2881 15.055 42.8521 14.065 42.3621 13.345C42.2827 13.225 42.1991 13.107 42.1101 12.993C42.0031 12.857 41.8861 12.728 41.7661 12.602C41.5871 12.414 41.3961 12.235 41.1901 12.075L41.1862 12.0711C41.1014 11.9859 41.0772 11.8531 41.1471 11.7531C41.2221 11.6441 41.3571 11.5921 41.4831 11.6301C43.7331 12.3101 45.8831 14.6101 46.0931 17.5101L46.8351 39.4101C46.8541 40.1381 47.3391 40.7601 48.0251 40.9801L54.0351 42.4801C56.7251 43.1501 59.3351 41.1201 59.3351 38.3601V9.6601C59.3351 7.2201 57.6751 5.1001 55.3051 4.5101L38.2051 0.250096C37.8691 0.166296 37.5341 0.124096 37.2051 0.121096L37.2 0.099997Z" fill="white"/>
</svg>
